<svg width="904" height="212" viewBox="0 0 904 212" fill="none" xmlns="http://www.w3.org/2000/svg">
<path d="M565.576 192V135.164C565.576 111.325 546.183 92 522.272 92C498.352 92 478.957 111.325 478.957 135.164V149.164C478.957 172.823 459.712 192 435.984 192C412.244 192 393 172.823 393 149.164V131.934" stroke="#7DB3AD" stroke-width="30" stroke-linecap="round" stroke-linejoin="round"/>
<path d="M88.5161 112.185L102.698 98.0027C120.641 80.0606 120.519 50.8499 102.427 32.7579C84.3352 14.666 55.1244 14.5445 37.1823 32.4866L23 46.6689" stroke="#FCA807" stroke-width="30" stroke-linecap="round" stroke-linejoin="round"/>
<path d="M23 121L93.7107 191.711" stroke="#F27A84" stroke-width="30" stroke-linecap="round"/>
<path d="M157.2 192C154.971 192 153.24 191.384 152.008 190.152C150.835 188.92 150.248 187.219 150.248 185.048V136.736C150.248 134.448 150.835 132.717 152.008 131.544C153.181 130.371 154.883 129.784 157.112 129.784C159.283 129.784 160.955 130.371 162.128 131.544C163.301 132.717 163.888 134.448 163.888 136.736V180.472H187.472C189.349 180.472 190.787 180.971 191.784 181.968C192.84 182.965 193.368 184.373 193.368 186.192C193.368 188.069 192.84 189.507 191.784 190.504C190.787 191.501 189.349 192 187.472 192H157.2ZM218.936 192.792C217.293 192.792 215.944 192.411 214.888 191.648C213.891 190.885 213.245 189.859 212.952 188.568C212.717 187.277 212.981 185.84 213.744 184.256L236.272 134.888C237.211 132.893 238.325 131.456 239.616 130.576C240.907 129.637 242.403 129.168 244.104 129.168C245.805 129.168 247.301 129.637 248.592 130.576C249.883 131.456 250.968 132.893 251.848 134.888L274.552 184.256C275.315 185.84 275.579 187.307 275.344 188.656C275.168 189.947 274.581 190.973 273.584 191.736C272.587 192.44 271.296 192.792 269.712 192.792C267.717 192.792 266.163 192.323 265.048 191.384C263.992 190.445 263.053 188.979 262.232 186.984L256.952 174.752L262.408 178.536H225.712L231.168 174.752L225.976 186.984C225.096 189.037 224.157 190.533 223.16 191.472C222.221 192.352 220.813 192.792 218.936 192.792ZM243.928 144.48L232.664 171.32L230.288 167.888H257.832L255.456 171.32L244.104 144.48H243.928ZM316.836 192.792C314.607 192.792 312.905 192.176 311.732 190.944C310.559 189.712 309.972 187.952 309.972 185.664V160.144L312.788 167.976L292.02 138.496C291.199 137.264 290.847 135.944 290.964 134.536C291.081 133.069 291.668 131.808 292.724 130.752C293.78 129.696 295.276 129.168 297.212 129.168C298.62 129.168 299.881 129.52 300.996 130.224C302.169 130.928 303.284 132.043 304.34 133.568L318.42 153.896H315.604L329.684 133.568C330.799 131.984 331.884 130.869 332.94 130.224C334.055 129.52 335.345 129.168 336.812 129.168C338.689 129.168 340.156 129.667 341.212 130.664C342.268 131.603 342.825 132.805 342.884 134.272C342.943 135.68 342.444 137.147 341.388 138.672L320.884 167.976L323.612 160.144V185.664C323.612 190.416 321.353 192.792 316.836 192.792Z" fill="#595959"/>
<path d="M649.92 192.968C643.232 192.968 637.512 191.648 632.76 189.008C628.008 186.368 624.342 182.672 621.76 177.92C619.238 173.109 617.976 167.448 617.976 160.936C617.976 156.067 618.68 151.696 620.088 147.824C621.555 143.893 623.667 140.549 626.424 137.792C629.182 134.976 632.526 132.805 636.456 131.28C640.446 129.755 644.934 128.992 649.92 128.992C652.854 128.992 655.816 129.373 658.808 130.136C661.859 130.84 664.499 131.867 666.728 133.216C668.195 134.037 669.192 135.064 669.72 136.296C670.248 137.528 670.395 138.76 670.16 139.992C669.984 141.224 669.486 142.28 668.664 143.16C667.902 144.04 666.934 144.597 665.76 144.832C664.587 145.067 663.267 144.803 661.8 144.04C660.04 142.984 658.192 142.221 656.256 141.752C654.32 141.283 652.355 141.048 650.36 141.048C646.43 141.048 643.115 141.84 640.416 143.424C637.776 144.949 635.782 147.179 634.432 150.112C633.083 153.045 632.408 156.653 632.408 160.936C632.408 165.16 633.083 168.768 634.432 171.76C635.782 174.752 637.776 177.04 640.416 178.624C643.115 180.149 646.43 180.912 650.36 180.912C652.238 180.912 654.144 180.677 656.08 180.208C658.075 179.739 659.982 179.005 661.8 178.008C663.326 177.245 664.675 176.981 665.848 177.216C667.08 177.392 668.078 177.92 668.84 178.8C669.662 179.621 670.16 180.619 670.336 181.792C670.571 182.965 670.454 184.139 669.984 185.312C669.515 186.485 668.635 187.483 667.344 188.304C665.174 189.771 662.504 190.915 659.336 191.736C656.168 192.557 653.03 192.968 649.92 192.968ZM698.223 192.792C696.581 192.792 695.231 192.411 694.175 191.648C693.178 190.885 692.533 189.859 692.239 188.568C692.005 187.277 692.269 185.84 693.031 184.256L715.559 134.888C716.498 132.893 717.613 131.456 718.903 130.576C720.194 129.637 721.69 129.168 723.391 129.168C725.093 129.168 726.589 129.637 727.879 130.576C729.17 131.456 730.255 132.893 731.135 134.888L753.839 184.256C754.602 185.84 754.866 187.307 754.631 188.656C754.455 189.947 753.869 190.973 752.871 191.736C751.874 192.44 750.583 192.792 748.999 192.792C747.005 192.792 745.45 192.323 744.335 191.384C743.279 190.445 742.341 188.979 741.519 186.984L736.239 174.752L741.695 178.536H704.999L710.455 174.752L705.263 186.984C704.383 189.037 703.445 190.533 702.447 191.472C701.509 192.352 700.101 192.792 698.223 192.792ZM723.215 144.48L711.951 171.32L709.575 167.888H737.119L734.743 171.32L723.391 144.48H723.215ZM787.185 192.792C784.956 192.792 783.254 192.176 782.081 190.944C780.908 189.712 780.321 187.981 780.321 185.752V136.912C780.321 134.624 780.908 132.893 782.081 131.72C783.313 130.547 785.044 129.96 787.273 129.96H808.657C815.58 129.96 820.918 131.72 824.673 135.24C828.428 138.701 830.305 143.541 830.305 149.76C830.305 155.979 828.428 160.848 824.673 164.368C820.918 167.888 815.58 169.648 808.657 169.648H793.961V185.752C793.961 187.981 793.374 189.712 792.201 190.944C791.086 192.176 789.414 192.792 787.185 192.792ZM793.961 159.088H806.369C809.889 159.088 812.558 158.296 814.377 156.712C816.254 155.128 817.193 152.811 817.193 149.76C817.193 146.709 816.254 144.421 814.377 142.896C812.558 141.371 809.889 140.608 806.369 140.608H793.961V159.088ZM863.487 192C861.199 192 859.439 191.384 858.207 190.152C856.975 188.92 856.359 187.16 856.359 184.872V137.088C856.359 134.8 856.975 133.04 858.207 131.808C859.439 130.576 861.199 129.96 863.487 129.96H894.199C895.959 129.96 897.279 130.429 898.159 131.368C899.097 132.248 899.567 133.539 899.567 135.24C899.567 137 899.097 138.349 898.159 139.288C897.279 140.168 895.959 140.608 894.199 140.608H869.383V155.128H892.175C893.993 155.128 895.343 155.597 896.223 156.536C897.161 157.416 897.631 158.736 897.631 160.496C897.631 162.256 897.161 163.605 896.223 164.544C895.343 165.424 893.993 165.864 892.175 165.864H869.383V181.352H894.199C895.959 181.352 897.279 181.821 898.159 182.76C899.097 183.64 899.567 184.931 899.567 186.632C899.567 188.392 899.097 189.741 898.159 190.68C897.279 191.56 895.959 192 894.199 192H863.487Z" fill="#595959"/>
</svg>
